<svg width="309" height="155" viewBox="0 0 309 155" fill="none" xmlns="http://www.w3.org/2000/svg">
<path d="M109.726 98.4306C106.342 98.4306 103 97.9858 99.7006 97.0961C96.4012 96.2065 93.7151 94.9992 91.6424 93.4742L95.386 85.0229C97.5856 86.4208 99.9121 87.5011 102.366 88.2636C104.861 88.9837 107.357 89.3438 109.853 89.3438C112.391 89.3438 114.337 89.0049 115.69 88.3271C117.044 87.607 117.721 86.6114 117.721 85.3406C117.721 84.1968 117.107 83.2648 115.881 82.5446C114.654 81.7821 112.348 81.0408 108.964 80.3206C104.692 79.4734 101.371 78.4355 99.0026 77.207C96.6338 75.9361 94.9629 74.4534 93.99 72.7589C93.0594 71.0644 92.5941 69.0099 92.5941 66.5952C92.5941 63.8416 93.3767 61.3634 94.9418 59.1606C96.5069 56.9154 98.7065 55.1785 101.541 53.95C104.375 52.6791 107.611 52.0437 111.249 52.0437C114.506 52.0437 117.657 52.5097 120.703 53.4417C123.791 54.3313 126.202 55.5174 127.936 57.0001L124.256 65.4514C122.268 64.0534 120.174 62.9944 117.974 62.2742C115.775 61.5117 113.575 61.1304 111.376 61.1304C109.218 61.1304 107.484 61.5541 106.173 62.4013C104.861 63.2062 104.206 64.3076 104.206 65.7056C104.206 66.4681 104.438 67.1035 104.904 67.6119C105.369 68.1202 106.236 68.6286 107.505 69.1369C108.774 69.6029 110.678 70.1113 113.216 70.662C117.319 71.5516 120.534 72.6318 122.86 73.9027C125.229 75.1312 126.9 76.5927 127.873 78.2872C128.846 79.9394 129.332 81.9304 129.332 84.2603C129.332 88.666 127.619 92.1397 124.193 94.6815C120.766 97.1809 115.944 98.4306 109.726 98.4306Z" fill="#ED252F"/>
<path d="M156.862 98.4306C152.251 98.4306 148.232 97.4986 144.806 95.6346C141.38 93.7283 138.736 91.0171 136.875 87.5011C135.056 83.985 134.146 79.8758 134.146 75.1736C134.146 70.4714 135.077 66.3834 136.938 62.9097C138.799 59.4359 141.422 56.7671 144.806 54.9032C148.232 52.9969 152.251 52.0437 156.862 52.0437C161.472 52.0437 165.47 52.9969 168.854 54.9032C172.28 56.7671 174.903 59.4359 176.722 62.9097C178.541 66.3834 179.45 70.4714 179.45 75.1736C179.45 79.8758 178.541 83.985 176.722 87.5011C174.903 91.0171 172.28 93.7283 168.854 95.6346C165.47 97.4986 161.472 98.4306 156.862 98.4306ZM156.862 89.3438C160.246 89.3438 162.889 88.1365 164.793 85.7218C166.739 83.3072 167.712 79.7911 167.712 75.1736C167.712 70.5984 166.739 67.1247 164.793 64.7524C162.889 62.3378 160.246 61.1304 156.862 61.1304C153.478 61.1304 150.834 62.3166 148.93 64.6889C147.027 67.0612 146.075 70.5561 146.075 75.1736C146.075 79.8335 147.027 83.3707 148.93 85.7854C150.834 88.1577 153.478 89.3438 156.862 89.3438Z" fill="#ED252F"/>
<path d="M202.146 98.4306C198.762 98.4306 195.42 97.9858 192.12 97.0961C188.821 96.2065 186.135 94.9992 184.062 93.4742L187.806 85.0229C190.005 86.4208 192.332 87.5011 194.785 88.2636C197.281 88.9837 199.777 89.3438 202.273 89.3438C204.811 89.3438 206.756 89.0049 208.11 88.3271C209.464 87.607 210.14 86.6114 210.14 85.3406C210.14 84.1968 209.527 83.2648 208.3 82.5446C207.074 81.7821 204.768 81.0408 201.384 80.3206C197.112 79.4734 193.791 78.4355 191.422 77.207C189.054 75.9361 187.383 74.4534 186.41 72.7589C185.479 71.0644 185.014 69.0099 185.014 66.5952C185.014 63.8416 185.796 61.3634 187.362 59.1606C188.927 56.9154 191.126 55.1785 193.96 53.95C196.795 52.6791 200.031 52.0437 203.668 52.0437C206.926 52.0437 210.077 52.5097 213.123 53.4417C216.21 54.3313 218.622 55.5174 220.356 57.0001L216.676 65.4514C214.688 64.0534 212.594 62.9944 210.394 62.2742C208.195 61.5117 205.995 61.1304 203.795 61.1304C201.638 61.1304 199.904 61.5541 198.592 62.4013C197.281 63.2062 196.625 64.3076 196.625 65.7056C196.625 66.4681 196.858 67.1035 197.323 67.6119C197.789 68.1202 198.656 68.6286 199.925 69.1369C201.194 69.6029 203.097 70.1113 205.635 70.662C209.739 71.5516 212.953 72.6318 215.28 73.9027C217.649 75.1312 219.32 76.5927 220.292 78.2872C221.265 79.9394 221.752 81.9304 221.752 84.2603C221.752 88.666 220.039 92.1397 216.612 94.6815C213.186 97.1809 208.364 98.4306 202.146 98.4306Z" fill="#ED252F"/>
<path d="M122.802 131.044C125.422 131.806 127.43 133.141 128.824 135.047C130.261 136.954 130.979 139.305 130.979 142.101C130.979 145.956 129.606 148.984 126.859 151.187C124.154 153.348 120.372 154.428 115.512 154.428H95.0365V109.185H114.878C119.527 109.185 123.182 110.244 125.845 112.362C128.507 114.438 129.838 117.319 129.838 121.004C129.838 123.376 129.205 125.452 127.937 127.231C126.711 128.968 125 130.239 122.802 131.044ZM103.024 128.248H113.547C119.21 128.248 122.041 126.13 122.041 121.894C122.041 119.776 121.344 118.187 119.949 117.128C118.555 116.069 116.421 115.539 113.547 115.539H103.024V128.248ZM114.624 148.074C117.583 148.074 119.738 147.544 121.09 146.485C122.485 145.426 123.182 143.753 123.182 141.465C123.182 139.135 122.485 137.419 121.09 136.318C119.738 135.217 117.583 134.666 114.624 134.666H103.024V148.074H114.624Z" fill="#0099A1"/>
<path d="M138.17 109.185H146.347V147.692H167.457V154.428H138.17V109.185Z" fill="#0099A1"/>
<path d="M190.563 155C186.211 155 182.407 154.068 179.153 152.204C175.941 150.298 173.448 147.608 171.673 144.134C169.94 140.618 169.074 136.488 169.074 131.743C169.074 127.041 169.94 122.953 171.673 119.479C173.405 115.963 175.878 113.273 179.09 111.409C182.344 109.545 186.168 108.613 190.563 108.613C194.959 108.613 198.762 109.545 201.974 111.409C205.228 113.273 207.7 115.963 209.391 119.479C211.123 122.953 211.99 127.041 211.99 131.743C211.99 136.488 211.123 140.618 209.391 144.134C207.658 147.608 205.186 150.298 201.974 152.204C198.762 154.068 194.959 155 190.563 155ZM190.563 148.455C194.747 148.455 198.001 147.015 200.326 144.134C202.65 141.253 203.812 137.123 203.812 131.743C203.812 126.405 202.65 122.317 200.326 119.479C198.001 116.598 194.747 115.158 190.563 115.158C186.38 115.158 183.126 116.577 180.801 119.415C178.477 122.254 177.315 126.363 177.315 131.743C177.315 137.123 178.477 141.253 180.801 144.134C183.126 147.015 186.38 148.455 190.563 148.455Z" fill="#0099A1"/>
<path d="M239.764 155C235.411 155 231.607 154.068 228.353 152.204C225.141 150.298 222.648 147.608 220.873 144.134C219.14 140.618 218.274 136.488 218.274 131.743C218.274 127.041 219.14 122.953 220.873 119.479C222.606 115.963 225.078 113.273 228.29 111.409C231.544 109.545 235.368 108.613 239.764 108.613C244.159 108.613 247.962 109.545 251.174 111.409C254.428 113.273 256.9 115.963 258.591 119.479C260.324 122.953 261.19 127.041 261.19 131.743C261.19 136.488 260.324 140.618 258.591 144.134C256.858 147.608 254.386 150.298 251.174 152.204C247.962 154.068 244.159 155 239.764 155ZM239.764 148.455C243.947 148.455 247.202 147.015 249.526 144.134C251.85 141.253 253.012 137.123 253.012 131.743C253.012 126.405 251.85 122.317 249.526 119.479C247.202 116.598 243.947 115.158 239.764 115.158C235.58 115.158 232.326 116.577 230.001 119.415C227.677 122.254 226.515 126.363 226.515 131.743C226.515 137.123 227.677 141.253 230.001 144.134C232.326 147.015 235.58 148.455 239.764 148.455Z" fill="#0099A1"/>
<path d="M268.932 109.185H285.541C292.936 109.185 298.663 111.155 302.72 115.094C306.819 119.034 308.869 124.584 308.869 131.743C308.869 138.945 306.819 144.536 302.72 148.518C298.663 152.458 292.936 154.428 285.541 154.428H268.932V109.185ZM285.033 147.756C295.43 147.756 300.628 142.418 300.628 131.743C300.628 121.152 295.43 115.857 285.033 115.857H277.11V147.756H285.033Z" fill="#0099A1"/>
<path d="M71.8627 142.555C70.5011 142.555 69.1394 142.023 68.1112 140.988L13.0331 85.4013C4.62692 75.9854 3.05176e-05 63.8411 3.05176e-05 51.1932C3.05176e-05 22.9733 22.8149 0 50.8402 0C61.3445 0 71.7655 3.55373 80.6302 10.1015C89.3699 3.55373 99.9575 0 110.934 0C138.973 0 161.788 22.9733 161.788 51.1932C161.788 54.1453 159.412 56.5378 156.481 56.5378C153.549 56.5378 151.173 54.1453 151.173 51.1932C151.173 28.8495 133.124 10.6752 110.934 10.6752C101.069 10.6752 91.5791 14.3128 84.2011 20.9306L80.7136 24.0646L77.1982 20.9866C69.584 14.3408 60.2191 10.6752 50.8541 10.6752C28.6645 10.6752 10.6155 28.8495 10.6155 51.1932C10.6155 61.1549 14.242 70.7247 20.828 78.154L75.6143 133.433C77.6845 135.517 77.6845 138.903 75.6004 140.988C74.5722 142.037 73.2105 142.555 71.8627 142.555Z" fill="#ED252F"/>
<path d="M79.1737 147.08H74.695C70.935 147.08 67.8832 143.786 67.8832 139.726C67.8832 135.667 70.935 132.372 74.695 132.372H79.1737C82.9337 132.372 85.9854 135.667 85.9854 139.726C85.9958 143.786 82.9441 147.08 79.1737 147.08Z" fill="#ED252F"/>
</svg>
